<?xml version="1.0" encoding="UTF-8" standalone="no" ?>
<!DOCTYPE svg PUBLIC "-//W3C//DTD SVG 1.1//EN" "http://www.w3.org/Graphics/SVG/1.1/DTD/svg11.dtd">
<svg xmlns="http://www.w3.org/2000/svg" xmlns:xlink="http://www.w3.org/1999/xlink" version="1.1" width="2000" height="2000" viewBox="0 0 2000 2000" xml:space="preserve">
<desc>Created with Fabric.js 5.3.0</desc>
<defs>
</defs>
<g transform="matrix(1 0 0 1 483.4291404214 1416.1035391981)" id="GJPVScZKDIO3Uqnn9W9nS"  >
<path style="stroke: rgb(196,86,152); stroke-width: 8; stroke-dasharray: none; stroke-linecap: butt; stroke-dashoffset: 0; stroke-linejoin: miter; stroke-miterlimit: 4; fill: rgb(255,255,255); fill-opacity: 0; fill-rule: nonzero; opacity: 1;" vector-effect="non-scaling-stroke"  transform=" translate(0, 0)" d="M 487.15713 -371.1395 C 468.4787 -389.65444 436.16751 -405.89684 389.08288 -407.95567 C 343.46884 -407.95567 318.78926 -407.95567 318.78926 -407.95567 C 318.78926 -407.95567 296.03071 -405.20065 295.59212 -373.62171 C 295.15352 -342.04276 295.59212 -165.65730000000002 295.59212 -165.65730000000002 C 295.59212 -165.65730000000002 297.38108 -11.451550000000026 295.59212 66.44738999999998 C 293.80316000000005 144.34632999999997 259.94459 200.76448 192.05072 245.93843999999999 C 124.15685 291.11240999999995 -145.75101999999998 402.53396 -487.15713 407.95565" stroke-linecap="round" />
</g>
<g transform="matrix(1 0 0 1 1689.5558697643 1170.0837345077)" id="kzoGwi8UQn2YedUO3XQn_"  >
<path style="stroke: rgb(224,109,56); stroke-width: 8; stroke-dasharray: none; stroke-linecap: butt; stroke-dashoffset: 0; stroke-linejoin: miter; stroke-miterlimit: 4; fill: rgb(255,255,255); fill-opacity: 0; fill-rule: nonzero; opacity: 1;" vector-effect="non-scaling-stroke"  transform=" translate(0, 0)" d="M -228.03701 -151.96537 L -228.03701 -4.561610000000002 C -228.03701 -4.561610000000002 -229.39647000000002 36.15039 -181.16201 36.15039 C -132.92755 36.15039 170.80489 36.15039 170.80489 36.15039 C 170.80489 36.15039 216.16628 34.89813 216.63822 85.02172 C 217.11015999999998 135.14531 228.04086999999998 151.96537 228.04086999999998 151.96537" stroke-linecap="round" />
</g>
<g transform="matrix(1 0 0 1 1730.4618018306 1000.2705627706)" id="l2XIJSvEcEIoSuU_B5vP1"  >
<path style="stroke: rgb(224,109,56); stroke-width: 8; stroke-dasharray: none; stroke-linecap: butt; stroke-dashoffset: 0; stroke-linejoin: miter; stroke-miterlimit: 4; fill: rgb(255,255,255); fill-opacity: 0; fill-rule: nonzero; opacity: 1;" vector-effect="non-scaling-stroke"  transform=" translate(0, 0)" d="M -0.40994 -999.1342 L -0.40994 -838.01094 C -0.40994 -838.01094 0.7673000000000001 -757.6673499999999 -82.22812 -756.9479200000001 C -91.84225 -755.98869 -154.95539000000002 -756.9479200000001 -154.95539000000002 -756.9479200000001 C -154.95539000000002 -756.9479200000001 -268.99774 -764.20766 -268.94293000000005 -667.5563900000001 C -268.8881200000001 -570.9051200000001 -268.94293000000005 17.847799999999893 -268.94293000000005 17.847799999999893 C -268.94293000000005 17.847799999999893 -267.35376 111.16933999999989 -154.95539000000005 111.57583999999989 C -42.55702000000005 111.98233999999988 101.86278999999993 111.57583999999989 101.86278999999993 111.57583999999989 C 101.86278999999993 111.57583999999989 183.68096999999995 99.67784999999989 185.9536999999999 217.85966999999988 C 187.5049999999999 298.52724999999987 186.9385499999999 635.05955 186.4226299999999 840.5811299999998 C 186.18269999999993 936.1583999999998 268.94296999999995 999.1341899999998 268.94296999999995 999.1341899999998" stroke-linecap="round" />
</g>
<g transform="matrix(1 0 0 1 1391.0737717348 732.4704394838)" id="vYSssdA-EFaPETM7bQZRA"  >
<path style="stroke: rgb(92,108,165); stroke-width: 8; stroke-dasharray: none; stroke-linecap: butt; stroke-dashoffset: 0; stroke-linejoin: miter; stroke-miterlimit: 4; fill: rgb(255,255,255); fill-opacity: 0; fill-rule: nonzero; opacity: 1;" vector-effect="non-scaling-stroke"  transform=" translate(0, 0)" d="M 608.33099 -481.12433 C 608.33099 -481.12433 -162.65658999999994 -482.32914999999997 -218.07827999999995 -481.12433 C -273.49996999999996 -479.91951 -297.80044999999996 -439.83216 -297.52887 -372.83928 C -297.25729 -305.84639999999996 -297.97729999999996 -25.32964999999996 -297.52887 17.719670000000008 C -297.08044 60.769000000000005 -340.5782 54.718900000000005 -340.5782 54.718900000000005 C -340.5782 54.718900000000005 -523.53784 55.16733000000001 -565.69031 54.718900000000005 C -607.84278 54.27047 -608.21242 78.81048000000001 -608.3309999999999 85.75938000000001 C -607.9246499999999 100.31984000000001 -607.4680999999999 169.06767000000002 -606.4065499999999 217.94760000000002 C -605.3449999999999 266.82753 -582.93617 260.61546000000004 -529.4124999999999 261.18962 C -497.9627599999999 261.10634999999996 -447.09687999999994 267.24861 -407.1521999999999 303.88702 C -368.1590599999999 339.70743 -227.6528499999999 481.94177 -53.640929999999855 481.65938 C 120.37099000000015 481.37699 608.3309800000002 481.65938 608.3309800000002 481.65938" stroke-linecap="round" />
</g>
<g transform="matrix(1 0 0 1 338.3910890314 1055.1623594164)" id="QPm0o3xwQHOZVG_FbeRXl"  >
<path style="stroke: rgb(80,171,116); stroke-width: 8; stroke-dasharray: none; stroke-linecap: butt; stroke-dashoffset: 0; stroke-linejoin: miter; stroke-miterlimit: 4; fill: rgb(255,255,255); fill-opacity: 0; fill-rule: nonzero; opacity: 1;" vector-effect="non-scaling-stroke"  transform=" translate(0, 0)" d="M -65.20899 943.98834 C -65.20899 943.98834 -18.286499999999997 743.00801 96.81231 710.57949 C 211.91111999999998 678.1509699999999 289.21614 640.5427999999999 289.21614 640.5427999999999 C 289.21614 640.5427999999999 400.6643 584.3480099999999 297.00947 454.8331999999999 C 193.35464000000002 325.31837999999993 44.96111000000002 165.74445999999995 38.882540000000006 154.6263899999999 C 32.803960000000004 143.5083199999999 2.9580900000000057 120.6050899999999 2.2726300000000066 -29.075700000000097 C 1.5871800000000067 -178.7564800000001 2.2726300000000066 -480.8168900000001 2.2726300000000066 -480.8168900000001 C 2.2726300000000066 -480.8168900000001 -0.9915599999999936 -536.4570100000001 61.219770000000004 -591.2507500000002 C 123.4311 -646.0444900000001 185.94977 -687.6362600000001 214.98805000000002 -749.4960800000001 C 243.76652 -810.8024400000002 215.80432000000002 -846.3404100000001 210.58553 -850.9223700000001 C 175.40478000000002 -881.8101400000002 155.9113 -899.3536100000001 112.18254 -937.4369000000002 C 68.45378 -975.5201900000002 -341.1411 -835.1396000000002 -341.1411 -835.1396000000002" stroke-linecap="round" />
</g>
<g transform="matrix(1 0 0 1 890.8771789849 1000.7226954704)" id="Qt_T_g02tHE-_PQT6VUxD"  >
<path style="stroke: rgb(202,67,81); stroke-width: 8; stroke-dasharray: none; stroke-linecap: butt; stroke-dashoffset: 0; stroke-linejoin: miter; stroke-miterlimit: 4; fill: none; fill-rule: nonzero; opacity: 1;" vector-effect="non-scaling-stroke"  transform=" translate(0, 0)" d="M -562.64166 -999.58633 C -562.64166 -999.58633 -224.64166 -703.52041 -169.64166 -653.52041 C -114.64166 -603.52041 -115.69717 -518.6724999999999 -115.69717 -518.6724999999999 L -115.69717 -249.89621999999991 C -115.69717 -249.89621999999991 -115.34267 -210.9313999999999 -114.91047 -166.60539999999992 C -114.36528 -110.69059999999992 -113.69646 -46.24483999999991 -113.45963 -40.719469999999916 C -113.03506 -30.813919999999918 -110.71546000000001 -0.8467999999999165 -72.71202 -0.0863399999999146 C -34.708569999999995 0.6741200000000854 33.73249 -7.690899999999915 83.54238000000001 37.556250000000084 C 133.35227 82.80340000000008 408.88566000000003 362.52859000000007 461.57583999999997 415.0951300000001 C 514.26602 467.6616700000001 558.19026 538.06329 559.75766 637.6244200000001 C 561.32506 737.1855500000001 562.64167 999.5863300000001 562.64167 999.5863300000001" stroke-linecap="round" />
</g>
<g transform="matrix(0.3388820954 0 0 0.3388820954 505.4141646737 1742.324501138)" id="wtZderRv4QtDWPhUWgtny"  >
<path style="stroke: rgb(80,171,116); stroke-width: 4; stroke-dasharray: none; stroke-linecap: butt; stroke-dashoffset: 0; stroke-linejoin: miter; stroke-miterlimit: 4; fill: rgb(255,255,255); fill-rule: nonzero; opacity: 1;" vector-effect="non-scaling-stroke"  transform=" translate(0, 0)" d="M 0 -47.16981 C 26.03774 -47.16981 47.16981 -26.03773 47.16981 0 C 47.16981 26.03774 26.03773 47.16981 0 47.16981 C -26.03774 47.16981 -47.16981 26.03773 -47.16981 0 C -47.16981 -26.03774 -26.03773 -47.16981 0 -47.16981 z" stroke-linecap="round" />
</g>
<g transform="matrix(0.2630650299 0 0 0.2630650299 1520.8641080896 1210.0566449069)" id="UluC5dXvL5mfj32_oNit1"  >
<path style="stroke: rgb(224,109,56); stroke-width: 4; stroke-dasharray: none; stroke-linecap: butt; stroke-dashoffset: 0; stroke-linejoin: miter; stroke-miterlimit: 4; fill: rgb(255,255,255); fill-rule: nonzero; opacity: 1;" vector-effect="non-scaling-stroke"  transform=" translate(0, 0)" d="M 0 -54.34783 C 30 -54.34783 54.34783 -30.000000000000004 54.34783 0 C 54.34783 30 30.000000000000004 54.34783 0 54.34783 C -30 54.34783 -54.34783 30.000000000000004 -54.34783 0 C -54.34783 -30 -30.000000000000004 -54.34783 0 -54.34783 z" stroke-linecap="round" />
</g>
<g transform="matrix(1 0 0 1 499.0541378091 156.1712618567)" id="3oQ3TwzqOy7hIg5CUWN5G"  >
<path style="stroke: rgb(202,67,81); stroke-width: 4; stroke-dasharray: none; stroke-linecap: butt; stroke-dashoffset: 0; stroke-linejoin: miter; stroke-miterlimit: 4; fill: rgb(255,255,255); fill-rule: nonzero; opacity: 1;" vector-effect="non-scaling-stroke"  transform=" translate(-15.6249973877, -15.6249973877)" d="M 15.625 0 C 24.25 0 31.25 7 31.25 15.625 C 31.25 24.25 24.25 31.25 15.625 31.25 C 7 31.25 0 24.25 0 15.625 C 0 7 7 0 15.625 0 z" stroke-linecap="round" />
</g>
<g transform="matrix(0.8257748295 0 0 0.8257748295 1602.2978584467 246.8106375628)" id="4Equ56rgyNTHvWl58phdQ"  >
<path style="stroke: rgb(92,108,165); stroke-width: 4; stroke-dasharray: none; stroke-linecap: butt; stroke-dashoffset: 0; stroke-linejoin: miter; stroke-miterlimit: 4; fill: rgb(255,255,255); fill-rule: nonzero; opacity: 1;" vector-effect="non-scaling-stroke"  transform=" translate(0, 0)" d="M 0 -16.75258 C 9.24742 -16.75258 16.75258 -9.247419999999998 16.75258 0 C 16.75258 9.24742 9.247419999999998 16.75258 0 16.75258 C -9.24742 16.75258 -16.75258 9.247419999999998 -16.75258 0 C -16.75258 -9.24742 -9.247419999999998 -16.75258 0 -16.75258 z" stroke-linecap="round" />
</g>
<g transform="matrix(0.1891779382 0 0 0.1891779382 883.4373706439 1000.0863318341)" id="arEHrN3oWsMzJXQ48gSmS"  >
<path style="stroke: rgb(0,0,0); stroke-width: 4; stroke-dasharray: none; stroke-linecap: butt; stroke-dashoffset: 0; stroke-linejoin: miter; stroke-miterlimit: 4; fill: rgb(255,255,255); fill-rule: nonzero; opacity: 1;" vector-effect="non-scaling-stroke"  transform=" translate(0, 0)" d="M 0 -84.74576 C 46.77966 -84.74576 84.74576 -46.77966000000001 84.74576 0 C 84.74576 46.77966 46.77966000000001 84.74576 0 84.74576 C -46.77966 84.74576 -84.74576 46.77966000000001 -84.74576 0 C -84.74576 -46.77966 -46.77966000000001 -84.74576 0 -84.74576 z" stroke-linecap="round" />
</g>
<g transform="matrix(0.7661610681 0 0 0.7661610681 929.7477078494 1018.1183604992)" id="UCO8GI84uz9CppGl61HWA"  >
<path style="stroke: rgb(196,86,152); stroke-width: 4; stroke-dasharray: none; stroke-linecap: butt; stroke-dashoffset: 0; stroke-linejoin: miter; stroke-miterlimit: 4; fill: rgb(255,0,0); fill-rule: nonzero; opacity: 1;" vector-effect="non-scaling-stroke"  transform=" translate(0, 0)" d="M 0 -8.13954 C 4.49303 -8.13954 8.13954 -4.49303 8.13954 0 C 8.13954 4.49303 4.49303 8.13954 0 8.13954 C -4.49303 8.13954 -8.13954 4.49303 -8.13954 0 C -8.13954 -4.49303 -4.49303 -8.13954 0 -8.13954 z" stroke-linecap="round" />
</g>
<g transform="matrix(0.7661610681 0 0 0.7661610681 778.7427815649 1055.1623594164)" id="GBvQvYMHgfjBxh5SMVl7R"  >
<path style="stroke: rgb(196,86,152); stroke-width: 4; stroke-dasharray: none; stroke-linecap: butt; stroke-dashoffset: 0; stroke-linejoin: miter; stroke-miterlimit: 4; fill: rgb(255,255,255); fill-rule: nonzero; opacity: 1;" vector-effect="non-scaling-stroke"  transform=" translate(0, 0)" d="M 0 -8.13954 C 4.49303 -8.13954 8.13954 -4.49303 8.13954 0 C 8.13954 4.49303 4.49303 8.13954 0 8.13954 C -4.49303 8.13954 -8.13954 4.49303 -8.13954 0 C -8.13954 -4.49303 -4.49303 -8.13954 0 -8.13954 z" stroke-linecap="round" />
</g>
<g transform="matrix(0.7661610681 0 0 0.7661610681 778.7427815649 1360.8040363042)" id="PFT-MlWl-PLRMJsN86wHV"  >
<path style="stroke: rgb(196,86,152); stroke-width: 4; stroke-dasharray: none; stroke-linecap: butt; stroke-dashoffset: 0; stroke-linejoin: miter; stroke-miterlimit: 4; fill: rgb(255,255,255); fill-rule: nonzero; opacity: 1;" vector-effect="non-scaling-stroke"  transform=" translate(0, 0)" d="M 0 -8.13954 C 4.49303 -8.13954 8.13954 -4.49303 8.13954 0 C 8.13954 4.49303 4.49303 8.13954 0 8.13954 C -4.49303 8.13954 -8.13954 4.49303 -8.13954 0 C -8.13954 -4.49303 -4.49303 -8.13954 0 -8.13954 z" stroke-linecap="round" />
</g>
<g transform="matrix(0.7661610681 0 0 0.7661610681 584.4662926866 1447.7238879897)" id="GS_iRP1lv-26FIr9e5Vln"  >
<path style="stroke: rgb(80,171,116); stroke-width: 4; stroke-dasharray: none; stroke-linecap: butt; stroke-dashoffset: 0; stroke-linejoin: miter; stroke-miterlimit: 4; fill: rgb(255,255,255); fill-rule: nonzero; opacity: 1;" vector-effect="non-scaling-stroke"  transform=" translate(0, 0)" d="M 0 -8.13954 C 4.49303 -8.13954 8.13954 -4.49303 8.13954 0 C 8.13954 4.49303 4.49303 8.13954 0 8.13954 C -4.49303 8.13954 -8.13954 4.49303 -8.13954 0 C -8.13954 -4.49303 -4.49303 -8.13954 0 -8.13954 z" stroke-linecap="round" />
</g>
<g transform="matrix(0.7661610681 0 0 0.7661610681 370.2375540886 1807.9336703526)" id="XG84x96hRsgqptB1iOdGc"  >
<path style="stroke: rgb(80,171,116); stroke-width: 4; stroke-dasharray: none; stroke-linecap: butt; stroke-dashoffset: 0; stroke-linejoin: miter; stroke-miterlimit: 4; fill: rgb(255,255,255); fill-rule: nonzero; opacity: 1;" vector-effect="non-scaling-stroke"  transform=" translate(0, 0)" d="M 0 -8.13954 C 4.49303 -8.13954 8.13954 -4.49303 8.13954 0 C 8.13954 4.49303 4.49303 8.13954 0 8.13954 C -4.49303 8.13954 -8.13954 4.49303 -8.13954 0 C -8.13954 -4.49303 -4.49303 -8.13954 0 -8.13954 z" stroke-linecap="round" />
</g>
<g transform="matrix(0.7661610681 0 0 0.7661610681 350.1419683623 1141.0046934273)" id="oB_eC6xvR5y5Fvy_SRfMu"  >
<path style="stroke: rgb(80,171,116); stroke-width: 4; stroke-dasharray: none; stroke-linecap: butt; stroke-dashoffset: 0; stroke-linejoin: miter; stroke-miterlimit: 4; fill: rgb(255,255,255); fill-rule: nonzero; opacity: 1;" vector-effect="non-scaling-stroke"  transform=" translate(0, 0)" d="M 0 -8.13954 C 4.49303 -8.13954 8.13954 -4.49303 8.13954 0 C 8.13954 4.49303 4.49303 8.13954 0 8.13954 C -4.49303 8.13954 -8.13954 4.49303 -8.13954 0 C -8.13954 -4.49303 -4.49303 -8.13954 0 -8.13954 z" stroke-linecap="round" />
</g>
<g transform="matrix(0.7661610681 0 0 0.7661610681 340.2140056981 900.9948398237)" id="wPZqVFThoJpjElfaNIflA"  >
<path style="stroke: rgb(80,171,116); stroke-width: 4; stroke-dasharray: none; stroke-linecap: butt; stroke-dashoffset: 0; stroke-linejoin: miter; stroke-miterlimit: 4; fill: rgb(255,255,255); fill-rule: nonzero; opacity: 1;" vector-effect="non-scaling-stroke"  transform=" translate(0, 0)" d="M 0 -8.13954 C 4.49303 -8.13954 8.13954 -4.49303 8.13954 0 C 8.13954 4.49303 4.49303 8.13954 0 8.13954 C -4.49303 8.13954 -8.13954 4.49303 -8.13954 0 C -8.13954 -4.49303 -4.49303 -8.13954 0 -8.13954 z" stroke-linecap="round" />
</g>
<g transform="matrix(1 0 0 1 507.2433141881 1006.392136877)" id="fgKObhvUc1prrdD0zuiNK"  >
<path style="stroke: rgb(161,147,180); stroke-width: 6; stroke-dasharray: none; stroke-linecap: butt; stroke-dashoffset: 0; stroke-linejoin: miter; stroke-miterlimit: 4; fill: rgb(255,255,255); fill-opacity: 0; fill-rule: nonzero; opacity: 1;" vector-effect="non-scaling-stroke"  transform=" translate(0, 0)" d="M 160.01989 359.6481 L 160.01989 -167.91255999999998 C 160.01989 -167.91255999999998 158.14371 -231.54891999999998 105.78067 -231.54891999999998 C 53.41764 -231.54891999999998 -119.63678 -231.54891999999998 -119.63678 -231.54891999999998 C -119.63678 -231.54891999999998 -159.50086 -234.2531 -159.86019 -273.55539 C -160.21952 -312.85769 -159.86019 -359.64808999999997 -159.86019 -359.64808999999997" stroke-linecap="round" />
</g>
<g transform="matrix(1 0 0 1 540.4471681699 1016.0910846508)" id="wCn66WYgPom93EnpAadRX"  >
<path style="stroke: rgb(161,147,180); stroke-width: 6; stroke-dasharray: none; stroke-linecap: butt; stroke-dashoffset: 0; stroke-linejoin: miter; stroke-miterlimit: 4; fill: rgb(255,255,255); fill-opacity: 0; fill-rule: nonzero; opacity: 1;" vector-effect="non-scaling-stroke"  transform=" translate(0, 0)" d="M 127.01149 240.89588 C 127.01149 240.89588 123.34634 193.96556 92.31186 193.96556 C 61.277379999999994 193.96556 -89.65518 173.50840000000002 -89.65518 106.26702000000002 C -89.65518 39.02564000000001 -89.65518 -215.5972 -89.65518 -215.5972 C -89.65518 -215.5972 -91.37932 -242.00884 -127.0115 -240.85941" stroke-linecap="round" />
</g>
<g transform="matrix(1 0 0 1 667.0914912641 1157.1436721916)" id="iHmaLy3F0Qp_x-dyXeWdj"  >
<path style="stroke: rgb(161,147,180); stroke-width: 4; stroke-dasharray: none; stroke-linecap: butt; stroke-dashoffset: 0; stroke-linejoin: miter; stroke-miterlimit: 4; fill: rgb(255,255,255); fill-rule: nonzero; opacity: 1;" vector-effect="non-scaling-stroke"  transform=" translate(-5.902780104, -5.902780104)" d="M 5.90278 0 C 9.16112 0 11.80556 2.64445 11.80556 5.90278 C 11.80556 9.16112 9.16111 11.80556 5.90278 11.80556 C 2.64444 11.80556 0 9.16111 0 5.90278 C 0 2.64444 2.64445 0 5.90278 0 z" stroke-linecap="round" />
</g>
<g transform="matrix(1 0 0 1 667.0914911601 852.110992453)" id="jHLBKsrZ_RPNhvVhb5aAp"  >
<path style="stroke: rgb(161,147,180); stroke-width: 4; stroke-dasharray: none; stroke-linecap: butt; stroke-dashoffset: 0; stroke-linejoin: miter; stroke-miterlimit: 4; fill: rgb(255,255,255); fill-rule: nonzero; opacity: 1;" vector-effect="non-scaling-stroke"  transform=" translate(-5.90278, -5.90278)" d="M 5.90278 0 C 9.16112 0 11.80556 2.64445 11.80556 5.90278 C 11.80556 9.16112 9.16111 11.80556 5.90278 11.80556 C 2.64444 11.80556 0 9.16111 0 5.90278 C 0 2.64444 2.64445 0 5.90278 0 z" stroke-linecap="round" />
</g>
<g transform="matrix(1 0 0 1 852.2548898529 786.9475937602)" id="2O5VEhtQFF555aIHrHD0E"  >
<path style="stroke: rgb(92,108,165); stroke-width: 4; stroke-dasharray: none; stroke-linecap: butt; stroke-dashoffset: 0; stroke-linejoin: miter; stroke-miterlimit: 4; fill: rgb(255,255,255); fill-rule: nonzero; opacity: 1;" vector-effect="non-scaling-stroke"  transform=" translate(-5.90278, -5.90278)" d="M 5.90278 0 C 9.16112 0 11.80556 2.64445 11.80556 5.90278 C 11.80556 9.16112 9.16111 11.80556 5.90278 11.80556 C 2.64444 11.80556 0 9.16111 0 5.90278 C 0 2.64444 2.64445 0 5.90278 0 z" stroke-linecap="round" />
</g>
<g transform="matrix(1 0 0 1 1113.0882231862 1140.6712747671)" id="bwzywzQRNS4by7CXKwcsh"  >
<path style="stroke: rgb(92,108,165); stroke-width: 4; stroke-dasharray: none; stroke-linecap: butt; stroke-dashoffset: 0; stroke-linejoin: miter; stroke-miterlimit: 4; fill: rgb(255,255,255); fill-rule: nonzero; opacity: 1;" vector-effect="non-scaling-stroke"  transform=" translate(-5.90278, -5.90278)" d="M 5.90278 0 C 9.16112 0 11.80556 2.64445 11.80556 5.90278 C 11.80556 9.16112 9.16111 11.80556 5.90278 11.80556 C 2.64444 11.80556 0 9.16111 0 5.90278 C 0 2.64444 2.64445 0 5.90278 0 z" stroke-linecap="round" />
</g>
<g transform="matrix(1 0 0 1 1046.4482105114 1108.5313383746)" id="UVsuYnSoQPep_OpYsCaQl"  >
<path style="stroke: rgb(202,67,81); stroke-width: 4; stroke-dasharray: none; stroke-linecap: butt; stroke-dashoffset: 0; stroke-linejoin: miter; stroke-miterlimit: 4; fill: rgb(255,255,255); fill-rule: nonzero; opacity: 1;" vector-effect="non-scaling-stroke"  transform=" translate(-5.90278, -5.90278)" d="M 5.90278 0 C 9.16112 0 11.80556 2.64445 11.80556 5.90278 C 11.80556 9.16112 9.16111 11.80556 5.90278 11.80556 C 2.64444 11.80556 0 9.16111 0 5.90278 C 0 2.64444 2.64445 0 5.90278 0 z" stroke-linecap="round" />
</g>
<g transform="matrix(1 0 0 1 775.1731169499 732.4704394838)" id="hi1-LftYKZeVwGx8jwU_B"  >
<path style="stroke: rgb(202,67,81); stroke-width: 4; stroke-dasharray: none; stroke-linecap: butt; stroke-dashoffset: 0; stroke-linejoin: miter; stroke-miterlimit: 4; fill: rgb(255,255,255); fill-rule: nonzero; opacity: 1;" vector-effect="non-scaling-stroke"  transform=" translate(-5.90278, -5.90278)" d="M 5.90278 0 C 9.16112 0 11.80556 2.64445 11.80556 5.90278 C 11.80556 9.16112 9.16111 11.80556 5.90278 11.80556 C 2.64444 11.80556 0 9.16111 0 5.90278 C 0 2.64444 2.64445 0 5.90278 0 z" stroke-linecap="round" />
</g>
<g transform="matrix(1 0 0 1 775.1731169499 486.5002902301)" id="gHjxf8NpwTB1lVHw6LoEq"  >
<path style="stroke: rgb(202,67,81); stroke-width: 4; stroke-dasharray: none; stroke-linecap: butt; stroke-dashoffset: 0; stroke-linejoin: miter; stroke-miterlimit: 4; fill: rgb(255,255,255); fill-rule: nonzero; opacity: 1;" vector-effect="non-scaling-stroke"  transform=" translate(-5.90278, -5.90278)" d="M 5.90278 0 C 9.16112 0 11.80556 2.64445 11.80556 5.90278 C 11.80556 9.16112 9.16111 11.80556 5.90278 11.80556 C 2.64444 11.80556 0 9.16111 0 5.90278 C 0 2.64444 2.64445 0 5.90278 0 z" stroke-linecap="round" />
</g>
<g transform="matrix(1 0 0 1 640.6618134854 275.1088025455)" id="g1OM_MCcBAVK_D3qBqUjT"  >
<path style="stroke: rgb(202,67,81); stroke-width: 4; stroke-dasharray: none; stroke-linecap: butt; stroke-dashoffset: 0; stroke-linejoin: miter; stroke-miterlimit: 4; fill: rgb(255,255,255); fill-rule: nonzero; opacity: 1;" vector-effect="non-scaling-stroke"  transform=" translate(-5.90278, -5.90278)" d="M 5.90278 0 C 9.16112 0 11.80556 2.64445 11.80556 5.90278 C 11.80556 9.16112 9.16111 11.80556 5.90278 11.80556 C 2.64444 11.80556 0 9.16111 0 5.90278 C 0 2.64444 2.64445 0 5.90278 0 z" stroke-linecap="round" />
</g>
<g transform="matrix(1 0 0 1 1263.2049672682 1326.0491085163)" id="ZWlStex-mo3FB6hiNnTl0"  >
<path style="stroke: rgb(202,67,81); stroke-width: 4; stroke-dasharray: none; stroke-linecap: butt; stroke-dashoffset: 0; stroke-linejoin: miter; stroke-miterlimit: 4; fill: rgb(255,255,255); fill-rule: nonzero; opacity: 1;" vector-effect="non-scaling-stroke"  transform=" translate(-5.90278, -5.90278)" d="M 5.90278 0 C 9.16112 0 11.80556 2.64445 11.80556 5.90278 C 11.80556 9.16112 9.16111 11.80556 5.90278 11.80556 C 2.64444 11.80556 0 9.16111 0 5.90278 C 0 2.64444 2.64445 0 5.90278 0 z" stroke-linecap="round" />
</g>
<g transform="matrix(1 0 0 1 1443.5213805019 1578.6166760839)" id="CQsWIcMmomRActfqj4QMC"  >
<path style="stroke: rgb(202,67,81); stroke-width: 4; stroke-dasharray: none; stroke-linecap: butt; stroke-dashoffset: 0; stroke-linejoin: miter; stroke-miterlimit: 4; fill: rgb(255,255,255); fill-rule: nonzero; opacity: 1;" vector-effect="non-scaling-stroke"  transform=" translate(-5.90278, -5.90278)" d="M 5.90278 0 C 9.16112 0 11.80556 2.64445 11.80556 5.90278 C 11.80556 9.16112 9.16111 11.80556 5.90278 11.80556 C 2.64444 11.80556 0 9.16111 0 5.90278 C 0 2.64444 2.64445 0 5.90278 0 z" stroke-linecap="round" />
</g>
<g transform="matrix(1 0 0 1 1452.7812627588 1867.2909124504)" id="pPWmVdca7Ljua2gscbhrD"  >
<path style="stroke: rgb(202,67,81); stroke-width: 4; stroke-dasharray: none; stroke-linecap: butt; stroke-dashoffset: 0; stroke-linejoin: miter; stroke-miterlimit: 4; fill: rgb(255,255,255); fill-rule: nonzero; opacity: 1;" vector-effect="non-scaling-stroke"  transform=" translate(-5.90278, -5.90278)" d="M 5.90278 0 C 9.16112 0 11.80556 2.64445 11.80556 5.90278 C 11.80556 9.16112 9.16111 11.80556 5.90278 11.80556 C 2.64444 11.80556 0 9.16111 0 5.90278 C 0 2.64444 2.64445 0 5.90278 0 z" stroke-linecap="round" />
</g>
<g transform="matrix(1 0 0 1 1312.8183675216 1213.5684167952)" id="Au1Syr-EJSRxPJc5g7Njt"  >
<path style="stroke: rgb(92,108,165); stroke-width: 4; stroke-dasharray: none; stroke-linecap: butt; stroke-dashoffset: 0; stroke-linejoin: miter; stroke-miterlimit: 4; fill: rgb(255,255,255); fill-rule: nonzero; opacity: 1;" vector-effect="non-scaling-stroke"  transform=" translate(-5.90278, -5.90278)" d="M 5.90278 0 C 9.16112 0 11.80556 2.64445 11.80556 5.90278 C 11.80556 9.16112 9.16111 11.80556 5.90278 11.80556 C 2.64444 11.80556 0 9.16111 0 5.90278 C 0 2.64444 2.64445 0 5.90278 0 z" stroke-linecap="round" />
</g>
<g transform="matrix(1 0 0 1 1461.5995431271 974.2710758039)" id="EkmLAAtUHOzYa7UAPVV35"  >
<path style="stroke: rgb(227,122,73); stroke-width: 4; stroke-dasharray: none; stroke-linecap: butt; stroke-dashoffset: 0; stroke-linejoin: miter; stroke-miterlimit: 4; fill: rgb(255,255,255); fill-rule: nonzero; opacity: 1;" vector-effect="non-scaling-stroke"  transform=" translate(0, 0)" d="M 0 -5.90278 C 3.25834 -5.90278 5.90278 -3.25833 5.90278 0 C 5.90278 3.25834 3.25833 5.90278 0 5.90278 C -3.25834 5.90278 -5.90278 3.25833 -5.90278 0 C -5.90278 -3.25834 -3.25833 -5.90278 0 -5.90278 z" stroke-linecap="round" />
</g>
<g transform="matrix(1 0 0 1 1717.8815658631 1111.7358645363)" id="3sjtaIQVwU1DDdF6q22L0"  >
<path style="stroke: rgb(227,122,73); stroke-width: 4; stroke-dasharray: none; stroke-linecap: butt; stroke-dashoffset: 0; stroke-linejoin: miter; stroke-miterlimit: 4; fill: rgb(255,255,255); fill-rule: nonzero; opacity: 1;" vector-effect="non-scaling-stroke"  transform=" translate(0, 0)" d="M 0 -5.90278 C 3.25834 -5.90278 5.90278 -3.25833 5.90278 0 C 5.90278 3.25834 3.25833 5.90278 0 5.90278 C -3.25834 5.90278 -5.90278 3.25833 -5.90278 0 C -5.90278 -3.25834 -3.25833 -5.90278 0 -5.90278 z" stroke-linecap="round" />
</g>
<g transform="matrix(1 0 0 1 1917.3181855814 1416.1035391981)" id="6MYV9dkcdP3fuiy00tPdt"  >
<path style="stroke: rgb(227,122,73); stroke-width: 4; stroke-dasharray: none; stroke-linecap: butt; stroke-dashoffset: 0; stroke-linejoin: miter; stroke-miterlimit: 4; fill: rgb(255,255,255); fill-rule: nonzero; opacity: 1;" vector-effect="non-scaling-stroke"  transform=" translate(0, 0)" d="M 0 -5.90278 C 3.25834 -5.90278 5.90278 -3.25833 5.90278 0 C 5.90278 3.25834 3.25833 5.90278 0 5.90278 C -3.25834 5.90278 -5.90278 3.25833 -5.90278 0 C -5.90278 -3.25834 -3.25833 -5.90278 0 -5.90278 z" stroke-linecap="round" />
</g>
<g transform="matrix(1 0 0 1 1917.3181855814 1659.6439118689)" id="p5dpZKUSOB1XUdRSbZorM"  >
<path style="stroke: rgb(227,122,73); stroke-width: 4; stroke-dasharray: none; stroke-linecap: butt; stroke-dashoffset: 0; stroke-linejoin: miter; stroke-miterlimit: 4; fill: rgb(255,255,255); fill-rule: nonzero; opacity: 1;" vector-effect="non-scaling-stroke"  transform=" translate(0, 0)" d="M 0 -5.90278 C 3.25834 -5.90278 5.90278 -3.25833 5.90278 0 C 5.90278 3.25834 3.25833 5.90278 0 5.90278 C -3.25834 5.90278 -5.90278 3.25833 -5.90278 0 C -5.90278 -3.25834 -3.25833 -5.90278 0 -5.90278 z" stroke-linecap="round" />
</g>
<g transform="matrix(1 0 0 1 1933.1237455814 1915.3998224588)" id="G2yHYfDP9LaREs9tkGB0l"  >
<path style="stroke: rgb(227,122,73); stroke-width: 4; stroke-dasharray: none; stroke-linecap: butt; stroke-dashoffset: 0; stroke-linejoin: miter; stroke-miterlimit: 4; fill: rgb(255,255,255); fill-rule: nonzero; opacity: 1;" vector-effect="non-scaling-stroke"  transform=" translate(0, 0)" d="M 0 -5.90278 C 3.25834 -5.90278 5.90278 -3.25833 5.90278 0 C 5.90278 3.25834 3.25833 5.90278 0 5.90278 C -3.25834 5.90278 -5.90278 3.25833 -5.90278 0 C -5.90278 -3.25834 -3.25833 -5.90278 0 -5.90278 z" stroke-linecap="round" />
</g>
<g transform="matrix(1 0 0 1 1461.5995403721 724.5676594838)" id="-OC-DXawwRQoyii-68SbN"  >
<path style="stroke: rgb(227,122,73); stroke-width: 4; stroke-dasharray: none; stroke-linecap: butt; stroke-dashoffset: 0; stroke-linejoin: miter; stroke-miterlimit: 4; fill: rgb(255,255,255); fill-rule: nonzero; opacity: 1;" vector-effect="non-scaling-stroke"  transform=" translate(0, 0)" d="M 0 -5.90278 C 3.25834 -5.90278 5.90278 -3.25833 5.90278 0 C 5.90278 3.25834 3.25833 5.90278 0 5.90278 C -3.25834 5.90278 -5.90278 3.25833 -5.90278 0 C -5.90278 -3.25834 -3.25833 -5.90278 0 -5.90278 z" stroke-linecap="round" />
</g>
<g transform="matrix(1 0 0 1 1461.5995403721 463.8359865358)" id="M6Ex10ERh13EOwFhrUIA0"  >
<path style="stroke: rgb(227,122,73); stroke-width: 4; stroke-dasharray: none; stroke-linecap: butt; stroke-dashoffset: 0; stroke-linejoin: miter; stroke-miterlimit: 4; fill: rgb(255,255,255); fill-rule: nonzero; opacity: 1;" vector-effect="non-scaling-stroke"  transform=" translate(0, 0)" d="M 0 -5.90278 C 3.25834 -5.90278 5.90278 -3.25833 5.90278 0 C 5.90278 3.25834 3.25833 5.90278 0 5.90278 C -3.25834 5.90278 -5.90278 3.25833 -5.90278 0 C -5.90278 -3.25834 -3.25833 -5.90278 0 -5.90278 z" stroke-linecap="round" />
</g>
<g transform="matrix(1 0 0 1 1730.4618018306 50.6359865358)" id="8HsdodseXS0LQBBODW2dX"  >
<path style="stroke: rgb(227,122,73); stroke-width: 4; stroke-dasharray: none; stroke-linecap: butt; stroke-dashoffset: 0; stroke-linejoin: miter; stroke-miterlimit: 4; fill: rgb(255,255,255); fill-rule: nonzero; opacity: 1;" vector-effect="non-scaling-stroke"  transform=" translate(0, 0)" d="M 0 -5.90278 C 3.25834 -5.90278 5.90278 -3.25833 5.90278 0 C 5.90278 3.25834 3.25833 5.90278 0 5.90278 C -3.25834 5.90278 -5.90278 3.25833 -5.90278 0 C -5.90278 -3.25834 -3.25833 -5.90278 0 -5.90278 z" stroke-linecap="round" />
</g>
<g transform="matrix(1 0 0 1 1093.5432334112 740.3732194838)" id="xnX54Z1V2435WT1knKUD_"  >
<path style="stroke: rgb(92,108,165); stroke-width: 4; stroke-dasharray: none; stroke-linecap: butt; stroke-dashoffset: 0; stroke-linejoin: miter; stroke-miterlimit: 4; fill: rgb(255,255,255); fill-rule: nonzero; opacity: 1;" vector-effect="non-scaling-stroke"  transform=" translate(-5.90278, -5.90278)" d="M 5.90278 0 C 9.16112 0 11.80556 2.64445 11.80556 5.90278 C 11.80556 9.16112 9.16111 11.80556 5.90278 11.80556 C 2.64444 11.80556 0 9.16111 0 5.90278 C 0 2.64444 2.64445 0 5.90278 0 z" stroke-linecap="round" />
</g>
<g transform="matrix(1 0 0 1 1320.7211475216 250.7304333293)" id="TjcdMt1maWTRuhijyemFU"  >
<path style="stroke: rgb(92,108,165); stroke-width: 4; stroke-dasharray: none; stroke-linecap: butt; stroke-dashoffset: 0; stroke-linejoin: miter; stroke-miterlimit: 4; fill: rgb(255,255,255); fill-rule: nonzero; opacity: 1;" vector-effect="non-scaling-stroke"  transform=" translate(-5.90278, -5.90278)" d="M 5.90278 0 C 9.16112 0 11.80556 2.64445 11.80556 5.90278 C 11.80556 9.16112 9.16111 11.80556 5.90278 11.80556 C 2.64444 11.80556 0 9.16111 0 5.90278 C 0 2.64444 2.64445 0 5.90278 0 z" stroke-linecap="round" />
</g>
<g transform="matrix(1 0 0 1 1886.5493683805 250.7304333293)" id="6YYb4EeXGjxPz4hjyKG9-"  >
<path style="stroke: rgb(92,108,165); stroke-width: 4; stroke-dasharray: none; stroke-linecap: butt; stroke-dashoffset: 0; stroke-linejoin: miter; stroke-miterlimit: 4; fill: rgb(255,255,255); fill-rule: nonzero; opacity: 1;" vector-effect="non-scaling-stroke"  transform=" translate(-5.90278, -5.90278)" d="M 5.90278 0 C 9.16112 0 11.80556 2.64445 11.80556 5.90278 C 11.80556 9.16112 9.16111 11.80556 5.90278 11.80556 C 2.64444 11.80556 0 9.16111 0 5.90278 C 0 2.64444 2.64445 0 5.90278 0 z" stroke-linecap="round" />
</g>
<g transform="matrix(1 0 0 1 450.9477005185 968.1738558039)" id="bngAfTd_vhtdAFQYYP4mk"  >
<path style="stroke: rgb(161,147,180); stroke-width: 4; stroke-dasharray: none; stroke-linecap: butt; stroke-dashoffset: 0; stroke-linejoin: miter; stroke-miterlimit: 4; fill: rgb(255,255,255); fill-rule: nonzero; opacity: 1;" vector-effect="non-scaling-stroke"  transform=" translate(-5.90278, -5.90278)" d="M 5.90278 0 C 9.16112 0 11.80556 2.64445 11.80556 5.90278 C 11.80556 9.16112 9.16111 11.80556 5.90278 11.80556 C 2.64444 11.80556 0 9.16111 0 5.90278 C 0 2.64444 2.64445 0 5.90278 0 z" stroke-linecap="round" />
</g>
<g transform="matrix(1 0 0 1 667.0914913682 1365.6739345982)" id="bxJt5ZIDs7zSm18BVzUoA"  >
<path style="stroke: rgb(161,147,180); stroke-width: 4; stroke-dasharray: none; stroke-linecap: butt; stroke-dashoffset: 0; stroke-linejoin: miter; stroke-miterlimit: 4; fill: rgb(255,255,255); fill-rule: nonzero; opacity: 1;" vector-effect="non-scaling-stroke"  transform=" translate(-5.90278, -5.90278)" d="M 5.90278 0 C 9.16112 0 11.80556 2.64445 11.80556 5.90278 C 11.80556 9.16112 9.16111 11.80556 5.90278 11.80556 C 2.64444 11.80556 0 9.16111 0 5.90278 C 0 2.64444 2.64445 0 5.90278 0 z" stroke-linecap="round" />
</g>
<g transform="matrix(1 0 0 1 1260.8394342337 784.6793523996)" id="B9pUGhL-bIKFxXO1iH-UY"  >
<path style="stroke: rgb(161,147,180); stroke-width: 6; stroke-dasharray: none; stroke-linecap: butt; stroke-dashoffset: 0; stroke-linejoin: miter; stroke-miterlimit: 4; fill: rgb(255,255,255); fill-opacity: 0; fill-rule: nonzero; opacity: 1;" vector-effect="non-scaling-stroke"  transform=" translate(0.0000011111, -0.000005)" d="M 160.01989 359.6481 L 160.01989 -167.91255999999998 C 160.01989 -167.91255999999998 158.14371 -231.54891999999998 105.78067 -231.54891999999998 C 53.41764 -231.54891999999998 -119.63678 -231.54891999999998 -119.63678 -231.54891999999998 C -119.63678 -231.54891999999998 -159.50086 -234.2531 -159.86019 -273.55539 C -160.21952 -312.85769 -159.86019 -359.64808999999997 -159.86019 -359.64808999999997" stroke-linecap="round" />
</g>
<g transform="matrix(1 0 0 1 1294.0432882154 794.3783001734)" id="jKR3hXuObdNUSSdaaEBY3"  >
<path style="stroke: rgb(161,147,180); stroke-width: 6; stroke-dasharray: none; stroke-linecap: butt; stroke-dashoffset: 0; stroke-linejoin: miter; stroke-miterlimit: 4; fill: rgb(255,255,255); fill-opacity: 0; fill-rule: nonzero; opacity: 1;" vector-effect="non-scaling-stroke"  transform=" translate(0.000005, -0.0000061985)" d="M 127.01149 240.89588 C 127.01149 240.89588 123.34634 193.96556 92.31186 193.96556 C 61.277379999999994 193.96556 -89.65518 173.50840000000002 -89.65518 106.26702000000002 C -89.65518 39.02564000000001 -89.65518 -215.5972 -89.65518 -215.5972 C -89.65518 -215.5972 -91.37932 -242.00884 -127.0115 -240.85941" stroke-linecap="round" />
</g>
<g transform="matrix(1 0 0 1 1420.6876113097 935.4308877141)" id="GYfLGra3POMNdHhLXjhXR"  >
<path style="stroke: rgb(161,147,180); stroke-width: 4; stroke-dasharray: none; stroke-linecap: butt; stroke-dashoffset: 0; stroke-linejoin: miter; stroke-miterlimit: 4; fill: rgb(255,255,255); fill-rule: nonzero; opacity: 1;" vector-effect="non-scaling-stroke"  transform=" translate(-5.90278, -5.90278)" d="M 5.90278 0 C 9.16112 0 11.80556 2.64445 11.80556 5.90278 C 11.80556 9.16112 9.16111 11.80556 5.90278 11.80556 C 2.64444 11.80556 0 9.16111 0 5.90278 C 0 2.64444 2.64445 0 5.90278 0 z" stroke-linecap="round" />
</g>
<g transform="matrix(1 0 0 1 1420.6876112057 630.3982079756)" id="nLHJcdAS7-PNZBibHzUwr"  >
<path style="stroke: rgb(161,147,180); stroke-width: 4; stroke-dasharray: none; stroke-linecap: butt; stroke-dashoffset: 0; stroke-linejoin: miter; stroke-miterlimit: 4; fill: rgb(255,255,255); fill-rule: nonzero; opacity: 1;" vector-effect="non-scaling-stroke"  transform=" translate(-5.90278, -5.90278)" d="M 5.90278 0 C 9.16112 0 11.80556 2.64445 11.80556 5.90278 C 11.80556 9.16112 9.16111 11.80556 5.90278 11.80556 C 2.64444 11.80556 0 9.16111 0 5.90278 C 0 2.64444 2.64445 0 5.90278 0 z" stroke-linecap="round" />
</g>
<g transform="matrix(1 0 0 1 1204.5438205641 746.4610713265)" id="ARsOxvuZlxvjj3Ajn7PkN"  >
<path style="stroke: rgb(161,147,180); stroke-width: 4; stroke-dasharray: none; stroke-linecap: butt; stroke-dashoffset: 0; stroke-linejoin: miter; stroke-miterlimit: 4; fill: rgb(255,255,255); fill-rule: nonzero; opacity: 1;" vector-effect="non-scaling-stroke"  transform=" translate(-5.90278, -5.90278)" d="M 5.90278 0 C 9.16112 0 11.80556 2.64445 11.80556 5.90278 C 11.80556 9.16112 9.16111 11.80556 5.90278 11.80556 C 2.64444 11.80556 0 9.16111 0 5.90278 C 0 2.64444 2.64445 0 5.90278 0 z" stroke-linecap="round" />
</g>
<g transform="matrix(1 0 0 1 1420.6876114137 1143.9611501207)" id="cq_R2PMNOQWt5BXbYg70t"  >
<path style="stroke: rgb(161,147,180); stroke-width: 4; stroke-dasharray: none; stroke-linecap: butt; stroke-dashoffset: 0; stroke-linejoin: miter; stroke-miterlimit: 4; fill: rgb(255,255,255); fill-rule: nonzero; opacity: 1;" vector-effect="non-scaling-stroke"  transform=" translate(-5.90278, -5.90278)" d="M 5.90278 0 C 9.16112 0 11.80556 2.64445 11.80556 5.90278 C 11.80556 9.16112 9.16111 11.80556 5.90278 11.80556 C 2.64444 11.80556 0 9.16111 0 5.90278 C 0 2.64444 2.64445 0 5.90278 0 z" stroke-linecap="round" />
</g>
<g transform="matrix(0.7661610681 0 0 0.7661610681 516.6791351968 359.1166840751)" id="K8jQbwQAncraqPwWWefJc"  >
<path style="stroke: rgb(80,171,116); stroke-width: 4; stroke-dasharray: none; stroke-linecap: butt; stroke-dashoffset: 0; stroke-linejoin: miter; stroke-miterlimit: 4; fill: rgb(255,255,255); fill-rule: nonzero; opacity: 1;" vector-effect="non-scaling-stroke"  transform=" translate(0, 0)" d="M 0 -8.13954 C 4.49303 -8.13954 8.13954 -4.49303 8.13954 0 C 8.13954 4.49303 4.49303 8.13954 0 8.13954 C -4.49303 8.13954 -8.13954 4.49303 -8.13954 0 C -8.13954 -4.49303 -4.49303 -8.13954 0 -8.13954 z" stroke-linecap="round" />
</g>
<g transform="matrix(0.7661610681 0 0 0.7661610681 236.0994250519 146.7824631293)" id="jv1RejmHld9-PVJQn35Md"  >
<path style="stroke: rgb(80,171,116); stroke-width: 4; stroke-dasharray: none; stroke-linecap: butt; stroke-dashoffset: 0; stroke-linejoin: miter; stroke-miterlimit: 4; fill: rgb(255,255,255); fill-rule: nonzero; opacity: 1;" vector-effect="non-scaling-stroke"  transform=" translate(0, 0)" d="M 0 -8.13954 C 4.49303 -8.13954 8.13954 -4.49303 8.13954 0 C 8.13954 4.49303 4.49303 8.13954 0 8.13954 C -4.49303 8.13954 -8.13954 4.49303 -8.13954 0 C -8.13954 -4.49303 -4.49303 -8.13954 0 -8.13954 z" stroke-linecap="round" />
</g>
<g transform="matrix(1.6023880493 0 0 1.6023880493 344.2234215945 654.7425401207)" id="gsQpfKgVY8QCZWtRsfHsX"  >
<path style="stroke: rgb(80,171,116); stroke-width: 4; stroke-dasharray: none; stroke-linecap: butt; stroke-dashoffset: 0; stroke-linejoin: miter; stroke-miterlimit: 4; fill: rgb(255,255,255); fill-rule: nonzero; opacity: 1;" vector-effect="non-scaling-stroke"  transform=" translate(0, 0)" d="M 0 -8.13954 C 4.49303 -8.13954 8.13954 -4.49303 8.13954 0 C 8.13954 4.49303 4.49303 8.13954 0 8.13954 C -4.49303 8.13954 -8.13954 4.49303 -8.13954 0 C -8.13954 -4.49303 -4.49303 -8.13954 0 -8.13954 z" stroke-linecap="round" />
</g>
<g transform="matrix(1.6597261388 0 0 1.6597261388 1097.4374562411 427.7471745759)" id="VFtYqB7qsvfDlkg2xUuIg"  >
<path style="stroke: rgb(92,108,165); stroke-width: 4; stroke-dasharray: none; stroke-linecap: butt; stroke-dashoffset: 0; stroke-linejoin: miter; stroke-miterlimit: 4; fill: rgb(255,255,255); fill-rule: nonzero; opacity: 1;" vector-effect="non-scaling-stroke"  transform=" translate(0, 0)" d="M 0 -5.90278 C 3.25834 -5.90278 5.90278 -3.25833 5.90278 0 C 5.90278 3.25834 3.25833 5.90278 0 5.90278 C -3.25834 5.90278 -5.90278 3.25833 -5.90278 0 C -5.90278 -3.25834 -3.25833 -5.90278 0 -5.90278 z" stroke-linecap="round" />
</g>
</svg>